# xmcd
#
# Track frame offsets:
#	150
#	19214
#	32092
#	55341
#	73186
#	99282
#	123085
#	133480
#	151209
#	162307
#	177459
#	196461
#	223629
#
# Disc length: 3142 seconds
#
# Revision: 0
# Processed by: cddbd v1.5.2PL0 Copyright (c) Steve Scherf et al.
# Submitted via: EasyCDDAExtractor 15.2.5.1
#
DISCID=bc0c440d
DTITLE=9dw
DYEAR=1900
DGENRE=
TTITLE0=STONE AND FRUITS
TTITLE1=BALANCER
TTITLE2=MIGRANT
TTITLE3=FIND YOUR LOVE
TTITLE4=POSSE
TTITLE5=FARSIDE
TTITLE6=BEGIN TO SING FOR APPETITE
TTITLE7=TONY
TTITLE8=BLACK COFFEE
TTITLE9=SYNTHETIC AVENUES
TTITLE10=THINKING MAKES A MISTAKE
TTITLE11=S.E.V
TTITLE12=WALK THE DIORAMA
EXTD=
EXTT0=
EXTT1=
EXTT2=
EXTT3=
EXTT4=
EXTT5=
EXTT6=
EXTT7=
EXTT8=
EXTT9=
EXTT10=
EXTT11=
EXTT12=
PLAYORDER=
